<?xml version="1.0" encoding="iso-8859-1"?>
<!-- Uploaded to: SVG Repo, www.svgrepo.com, Generator: SVG Repo Mixer Tools -->
<svg version="1.1" id="Layer_1" xmlns="http://www.w3.org/2000/svg" xmlns:xlink="http://www.w3.org/1999/xlink" 
	 viewBox="0 0 512 512" xml:space="preserve">
<rect y="61.048" width="512" height="389.904"/>
<rect y="127.84" style="fill:#CCCCCC;" width="512" height="6"/>
<circle style="fill:#E21B1B;" cx="48.08" cy="98.504" r="12.584"/>
<circle style="fill:#F91E1E;" cx="89.312" cy="98.504" r="12.584"/>
<circle style="fill:#666666;" cx="130.568" cy="98.504" r="12.584"/>
<rect x="404.816" y="352.08" style="fill:#6B6B6B;" width="34.568" height="9.592"/>
<rect x="212.776" y="352.08" style="fill:#E21B1B;" width="51.856" height="9.592"/>
<rect x="91.768" y="352.08" style="fill:#C1C1C1;" width="69.152" height="9.592"/>
<rect x="91.768" y="282.88" style="fill:#E21B1B;" width="69.152" height="9.592"/>
<rect x="195.504" y="282.88" style="fill:#6B6B6B;" width="69.144" height="9.592"/>
<rect x="281.92" y="282.88" style="fill:#C1C1C1;" width="69.152" height="9.592"/>
<g>
	<rect x="385.68" y="282.88" style="fill:#E21B1B;" width="69.152" height="9.592"/>
	<rect x="333.792" y="317.488" style="fill:#E21B1B;" width="34.576" height="9.592"/>
</g>
<rect x="247.36" y="317.488" style="fill:#C1C1C1;" width="34.568" height="9.592"/>
<rect x="111.36" y="317.488" style="fill:#E21B1B;" width="65" height="9.592"/>
<rect x="91.768" y="386.64" style="fill:#6B6B6B;" width="172.864" height="9.592"/>
<g>
	<rect x="316.496" y="386.64" style="fill:#E21B1B;" width="69.152" height="9.592"/>
	<rect x="333.792" y="248.32" style="fill:#E21B1B;" width="34.576" height="9.6"/>
	<rect x="247.36" y="248.32" style="fill:#E21B1B;" width="34.568" height="9.6"/>
	<rect x="91.768" y="248.32" style="fill:#E21B1B;" width="103.72" height="9.6"/>
</g>
<rect x="281.92" y="179.184" style="fill:#6B6B6B;" width="86.44" height="9.6"/>
<g>
	<rect x="212.776" y="179.184" style="fill:#E21B1B;" width="34.584" height="9.6"/>
	<rect x="420.24" y="179.184" style="fill:#E21B1B;" width="34.568" height="9.6"/>
</g>
<rect x="74.48" y="179.184" style="fill:#C1C1C1;" width="103.72" height="9.6"/>
<rect x="299.2" y="213.76" style="fill:#E21B1B;" width="69.152" height="9.6"/>
<rect x="230.056" y="213.76" style="fill:#C1C1C1;" width="34.576" height="9.6"/>
<rect x="57.2" y="213.76" style="fill:#6B6B6B;" width="103.712" height="9.6"/>
</svg>